<svg width="305" height="208" viewBox="0 0 305 208" fill="none" xmlns="http://www.w3.org/2000/svg">
<path fill-rule="evenodd" clip-rule="evenodd" d="M240.438 2.3167L240.139 2.3824C228.989 4.8997 223.327 8.6538 223.327 22.1926H223.276L223.327 184.615C224.283 195.308 230.029 198.61 240.139 200.89L240.438 200.96V203.258H162.619V200.96L162.919 200.89C173.017 198.61 178.628 195.308 179.584 184.615V26.6034L104.578 202.893H100.445L27.5629 31.3864V180.7C27.5629 194.239 33.2251 197.993 44.3779 200.511L44.6735 200.576V202.893H0V200.569L0.29549 200.503C11.4484 197.986 17.1324 194.232 17.1324 180.693V22.1926C17.1324 8.6538 11.4703 4.8997 0.3174 2.3824L0.0218701 2.3167V0H65.8664L122.601 133.346L179.336 0H240.438V2.3167ZM304.345 57.9935C287.183 58.3473 276.957 78.9019 275.684 107.381H304.559L304.554 115.407H274.914L274.903 115.414C273.465 140.825 286.079 162.631 304.522 170.924L304.5 207.622C304.03 207.631 303.558 207.636 303.083 207.636C262.349 207.636 239.416 173.707 238.427 131.251C238.398 129.61 238.409 127.979 238.446 126.359C238.468 125.348 238.508 124.342 238.559 123.338C238.584 122.802 238.61 122.298 238.65 121.737C238.69 121.175 238.73 120.613 238.778 120.051C240.244 101.306 246.279 84.6261 256.238 72.2839C262.426 64.6224 269.861 58.7851 278.292 54.8814C285.699 51.1529 296.107 49.0952 304.593 49.0952L304.588 58.0002C304.505 57.997 304.424 57.9948 304.345 57.9935Z" fill="white"/>
</svg>
